<svg xmlns="http://www.w3.org/2000/svg" width="30" height="30" viewBox="0 0 30 30"><path style="opacity:0.75;fill:#1C1C1C;" d="M29.82428,14.58955l-4.80142-3.90964a.59789.59789,0,0,0-1.0217.42522v2.40366H16.5008V6.00842h2.40366a.60044.60044,0,0,0,.42522-1.0217L15.43185.1794a.59178.59178,0,0,0-.84453,0L10.67768,4.98082a.59789.59789,0,0,0,.42522,1.0217h2.40366v7.50036H6.00619V11.09922a.60044.60044,0,0,0-1.0217-.42521L.17717,14.57183a.59178.59178,0,0,0,0,.84453L4.97859,19.326a.59789.59789,0,0,0,1.0217-.42522V16.49712h7.50036v7.50036H11.097a.60044.60044,0,0,0-.42521,1.0217L14.5637,29.8206a.59177.59177,0,0,0,.84452,0l3.90964-4.80142a.59789.59789,0,0,0-.42522-1.0217H16.489V16.49712h7.50037v2.40366a.60044.60044,0,0,0,1.0217.42522l4.80141-3.89192A.58189.58189,0,0,0,29.82428,14.58955Z"/></svg>