<svg xmlns="http://www.w3.org/2000/svg" width="30" height="30" viewBox="0 0 30 30"><defs><style>.a{fill:#1c1c1c;opacity:0.75;}.b{fill:#fff;opacity:0.8;}</style></defs><path class="a" d="M15,0A15,15,0,1,0,30,15,15,15,0,0,0,15,0ZM9.98285,23.80829H6.19171V20.01715L17.373,8.83588,21.16412,12.627Zm14.1131-14.1131-1.85,1.8501-3.7912-3.7912,1.8501-1.85a1.0068,1.0068,0,0,1,1.42548,0l2.36566,2.36566A1.0068,1.0068,0,0,1,24.09595,9.69519Z"/><path class="a" d="M21.73029,5.90405a1.0068,1.0068,0,0,0-1.42548,0l-1.8501,1.85,3.7912,3.7912,1.85-1.8501a1.0068,1.0068,0,0,0,0-1.42548Z"/><path class="b" d="M21.73029,5.90405a1.0068,1.0068,0,0,0-1.42548,0l-1.8501,1.85,3.7912,3.7912,1.85-1.8501a1.0068,1.0068,0,0,0,0-1.42548Z"/><polygon class="a" points="6.192 20.017 6.192 23.808 9.983 23.808 21.164 12.627 17.373 8.836 6.192 20.017"/><polygon class="b" points="6.192 20.017 6.192 23.808 9.983 23.808 21.164 12.627 17.373 8.836 6.192 20.017"/></svg>