<svg xmlns="http://www.w3.org/2000/svg" width="32" height="32" viewBox="0 0 32 32"><defs><style>.a{fill:#fff;}.b{fill:#06c;opacity:0.3;isolation:isolate;}.c{fill:#36c;}</style></defs><title>web-icon</title><rect class="a" width="32" height="32"/><rect class="b" x="4" y="11" width="15.8" height="5.2"/><rect class="b" x="4" y="19.2" width="15.8" height="5.2"/><rect class="b" x="22.8" y="11" width="5.2" height="13.5"/><path class="c" d="M28,3.5H4a3.00853,3.00853,0,0,0-3,3v18a3.07591,3.07591,0,0,0,3,3H28a3.00853,3.00853,0,0,0,3-3V6.5A2.94645,2.94645,0,0,0,28,3.5Zm-8.2,21H4V19.3H19.8Zm0-8.3H4V11H19.8ZM28,24.5H22.8V11H28Z"/></svg>